<svg width="128" height="128" viewBox="0 0 128 128" fill="none" xmlns="http://www.w3.org/2000/svg">
  <path
    d="M64 14C35.281 14 12 37.281 12 66C12 94.719 35.281 118 64 118C78.393 118 91.431 112.154 100.845 102.691C104.534 98.983 104.518 92.99 100.81 89.302C97.102 85.613 91.109 85.628 87.421 89.336C81.419 95.37 73.119 99.091 64 99.091C45.724 99.091 30.909 84.276 30.909 66C30.909 47.724 45.724 32.909 64 32.909C77.291 32.909 88.738 40.746 94.004 52.045H78.571C73.349 52.045 69.116 56.278 69.116 61.5C69.116 66.722 73.349 70.955 78.571 70.955H106.601C111.823 70.955 116.056 66.722 116.056 61.5C116.056 34.162 92.338 14 64 14Z"
    fill="#2C7BE5"
  />
  <path
    d="M90.148 52.221C87.894 54.475 84.243 54.475 81.989 52.221C77.123 47.355 70.401 44.347 63 44.347C55.599 44.347 48.877 47.355 44.011 52.221C41.757 54.475 38.106 54.475 35.852 52.221C33.598 49.967 33.598 46.316 35.852 44.062C42.805 37.109 52.405 32.818 63 32.818C73.595 32.818 83.195 37.109 90.148 44.062C92.402 46.316 92.402 49.967 90.148 52.221Z"
    fill="#2C7BE5"
  />
  <circle cx="101.5" cy="59.5" r="8.5" fill="#F6A800"/>
</svg>
